<svg width="99" height="22" viewBox="0 0 99 22" fill="none" xmlns="http://www.w3.org/2000/svg">
<path d="M99 0.5H0V3.45312H99V0.5Z" fill="#B71C1C"/>
<path d="M1.68658 21.2119V18.7839H9.13393C9.99415 18.7839 10.6546 18.6125 11.1151 18.2695C11.5825 17.9266 11.8162 17.4259 11.8162 16.7675V16.7572C11.8162 16.3114 11.7044 15.941 11.4809 15.6461C11.2642 15.3443 10.9424 15.1214 10.5157 14.9773C10.0958 14.8264 9.57759 14.751 8.96121 14.751H1.68658V12.5699H8.504C9.35745 12.5699 10.0179 12.4019 10.4852 12.0658C10.9526 11.7297 11.1863 11.2565 11.1863 10.646V10.6255C11.1863 10.0288 10.9831 9.57608 10.5767 9.26744C10.177 8.95194 9.62161 8.79419 8.91041 8.79419H1.68658V6.36619H9.81466C10.7765 6.36619 11.6062 6.51708 12.3039 6.81887C13.0083 7.11379 13.5502 7.53904 13.9295 8.09459C14.3156 8.64329 14.5086 9.29487 14.5086 10.0493V10.0699C14.5086 10.6323 14.3867 11.1433 14.1429 11.6028C13.9058 12.0555 13.5671 12.4362 13.1268 12.7448C12.6866 13.0535 12.1718 13.2627 11.5825 13.3724V13.4238C12.3276 13.5061 12.9711 13.7085 13.5129 14.0308C14.0616 14.3463 14.4815 14.7613 14.7728 15.2757C15.0708 15.7901 15.2198 16.3765 15.2198 17.035V17.0555C15.2198 17.9266 15.0065 18.6742 14.5797 19.2983C14.153 19.9156 13.54 20.3889 12.7408 20.7181C11.9483 21.0473 10.9966 21.2119 9.88578 21.2119H1.68658ZM0 21.2119V6.36619H3.32235V21.2119H0Z" fill="#B71C1C"/>
<path d="M17.2112 21.2119V6.36619H30.4701V8.92793H20.564V12.4876H29.7996V14.8642H20.564V18.6502H30.4701V21.2119H17.2112Z" fill="#B71C1C"/>
<path d="M36.2715 21.2119H32.9187V6.36619H36.2715V12.4053H37.5416L43.9627 6.36619H48.0776L40.0206 13.8148L40.0511 13.1461L48.5551 21.2119H44.1558L37.5416 14.9568H36.2715V21.2119Z" fill="#B71C1C"/>
<path d="M54.5699 21.2119V9.03081H48.6262V6.36619H63.8562V9.03081H57.9126V21.2119H54.5699Z" fill="#B71C1C"/>
<path d="M73.1629 21.5C71.334 21.5 69.7389 21.1879 68.3775 20.5638C67.0228 19.9328 65.9729 19.0411 65.2278 17.8889C64.4828 16.7297 64.1102 15.3649 64.1102 13.7942V13.7736C64.1102 12.203 64.4828 10.8415 65.2278 9.68925C65.9797 8.53698 67.0329 7.64878 68.3876 7.02463C69.7423 6.39363 71.334 6.07812 73.1629 6.07812C74.9985 6.07812 76.5936 6.39363 77.9483 7.02463C79.3097 7.64878 80.363 8.53698 81.1081 9.68925C81.8531 10.8415 82.2257 12.203 82.2257 13.7736V13.7942C82.2257 15.3649 81.8531 16.7263 81.1081 17.8786C80.363 19.0309 79.3131 19.9225 77.9584 20.5535C76.6038 21.1845 75.0052 21.5 73.1629 21.5ZM73.1629 18.7839C74.3143 18.7839 75.31 18.5816 76.1499 18.1769C76.9966 17.7654 77.6502 17.1859 78.1108 16.4383C78.5782 15.6906 78.8119 14.8093 78.8119 13.7942V13.7736C78.8119 12.7585 78.5782 11.8772 78.1108 11.1296C77.6502 10.382 76.9966 9.80585 76.1499 9.40118C75.3033 8.99652 74.3076 8.79419 73.1629 8.79419C72.0249 8.79419 71.0326 8.99652 70.186 9.40118C69.3393 9.80585 68.6857 10.382 68.2251 11.1296C67.7645 11.8703 67.5342 12.7517 67.5342 13.7736V13.7942C67.5342 14.8093 67.7645 15.6906 68.2251 16.4383C68.6857 17.1859 69.3393 17.7654 70.186 18.1769C71.0326 18.5816 72.0249 18.7839 73.1629 18.7839Z" fill="#B71C1C"/>
<path d="M86.1068 16.5514V14.0308H92.6906C93.6253 14.0308 94.3433 13.8114 94.8445 13.3724C95.3525 12.9334 95.6065 12.3059 95.6065 11.4897V11.4691C95.6065 10.6598 95.3525 10.0356 94.8445 9.59666C94.3433 9.1577 93.6253 8.93822 92.6906 8.93822H86.1068V6.36619H93.2392C94.4246 6.36619 95.4473 6.57881 96.3076 7.00405C97.1678 7.42244 97.8316 8.01229 98.299 8.77361C98.7663 9.52807 99 10.4128 99 11.4279V11.4485C99 12.4568 98.7663 13.345 98.299 14.1131C97.8316 14.8813 97.1678 15.4815 96.3076 15.9136C95.4473 16.3388 94.4246 16.5514 93.2392 16.5514H86.1068ZM84.4304 21.2119V6.36619H87.7731V21.2119H84.4304Z" fill="#B71C1C"/>
</svg>
